<?xml version="1.0" standalone="no"?>
<!DOCTYPE svg PUBLIC "-//W3C//DTD SVG 20010904//EN"
 "http://www.w3.org/TR/2001/REC-SVG-20010904/DTD/svg10.dtd">
<svg version="1.0" xmlns="http://www.w3.org/2000/svg"
 width="700.000000pt" height="700.000000pt" viewBox="0 0 700.000000 700.000000"
 preserveAspectRatio="xMidYMid meet">
<metadata>
Created by potrace 1.11, written by Peter Selinger 2001-2013
</metadata>
<g transform="translate(0.000000,700.000000) scale(0.100000,-0.100000)"
fill="#000000" stroke="none">
<path d="M3602 6970 c-57 -29 -112 -80 -199 -187 -16 -20 -31 -23 -133 -30
-63 -4 -134 -7 -158 -6 -40 2 -153 38 -335 107 -126 48 -217 40 -292 -26 -46
-41 -92 -123 -144 -259 -7 -20 -31 -35 -108 -69 -164 -71 -149 -68 -389 -70
-122 0 -235 -5 -252 -9 -114 -33 -165 -123 -180 -320 l-9 -111 -44 -38 c-24
-20 -71 -62 -105 -93 -66 -61 -137 -94 -314 -144 -179 -51 -253 -104 -280
-200 -15 -53 -8 -146 15 -224 16 -52 23 -77 29 -111 2 -8 -10 -37 -26 -64 -16
-27 -42 -75 -59 -108 -38 -75 -77 -113 -243 -238 -182 -137 -215 -175 -217
-258 -2 -81 24 -148 106 -268 50 -72 49 -70 35 -142 -5 -28 -12 -77 -15 -109
-8 -78 -48 -159 -161 -324 -108 -158 -116 -175 -116 -250 0 -56 14 -95 56
-153 18 -25 126 -117 185 -158 11 -8 22 -27 25 -44 40 -243 40 -292 -9 -454
-69 -232 -72 -264 -36 -346 36 -80 100 -123 256 -171 44 -14 85 -30 91 -37 26
-25 135 -254 139 -291 8 -68 14 -146 20 -250 7 -125 13 -161 38 -205 27 -50
36 -58 81 -85 51 -29 101 -38 237 -39 l106 -2 84 -74 c46 -41 94 -86 106 -100
28 -31 83 -143 130 -263 52 -135 78 -181 120 -214 93 -73 181 -72 383 6 l55
21 80 -36 c208 -96 186 -81 300 -209 183 -207 223 -239 310 -248 65 -8 175 41
250 110 67 62 91 74 141 68 27 -2 87 -7 134 -11 97 -6 159 -31 344 -138 61
-36 131 -72 155 -81 125 -44 217 8 338 192 32 48 65 88 73 89 8 1 51 12 95 23
44 12 89 24 100 27 65 17 164 8 365 -34 255 -54 353 20 410 311 l11 57 90 60
c133 89 182 111 279 124 19 3 52 8 72 11 21 2 62 8 90 11 193 22 283 84 306
211 9 53 9 85 -4 209 l-7 71 83 108 c95 123 120 141 339 251 79 40 151 81 160
91 96 105 99 197 10 393 l-39 87 49 131 c27 72 59 145 71 164 13 18 76 86 139
151 74 74 127 137 145 172 58 112 31 205 -100 345 l-80 85 2 140 c0 77 4 154
9 170 4 17 40 100 80 186 40 85 78 173 84 195 37 134 -26 233 -211 328 l-95
50 -18 55 c-9 31 -28 85 -42 121 -22 54 -26 81 -25 160 0 90 5 155 18 245 20
145 5 214 -61 280 -50 48 -129 77 -263 96 l-83 11 -80 106 c-88 114 -117 177
-144 308 -48 234 -54 250 -111 314 -65 72 -177 87 -361 47 l-62 -13 -110 71
c-126 82 -153 111 -266 295 -121 195 -154 226 -252 236 -72 8 -143 -15 -260
-81 -76 -43 -85 -46 -116 -36 -18 6 -77 22 -130 35 -107 27 -139 43 -242 125
-71 57 -87 69 -140 116 -60 52 -111 76 -177 81 -57 5 -69 2 -126 -26z m178
-574 c459 -50 811 -163 1205 -389 62 -36 224 -142 265 -174 378 -296 638 -600
842 -983 125 -235 241 -565 284 -810 2 -8 6 -31 9 -50 4 -19 9 -51 11 -70 2
-19 6 -46 9 -60 30 -163 25 -577 -10 -789 -2 -13 -7 -45 -11 -70 -11 -82 -64
-294 -101 -406 -144 -439 -378 -821 -703 -1146 -148 -148 -179 -175 -328 -287
-387 -288 -869 -489 -1317 -547 -27 -4 -60 -8 -73 -10 -118 -18 -429 -24 -582
-12 -593 50 -1148 275 -1609 652 -229 187 -459 448 -619 701 -39 63 -72 116
-72 118 0 2 -16 33 -36 67 -137 242 -273 659 -309 945 -4 27 -8 60 -11 74 -10
62 -18 206 -18 330 0 127 11 357 18 369 2 3 6 29 10 56 3 28 8 61 11 75 2 13
7 41 10 61 12 78 65 279 105 394 150 434 379 799 704 1120 134 134 166 162
276 245 47 36 87 67 90 70 5 6 173 113 230 147 253 152 631 291 935 343 33 5
71 12 85 15 14 3 52 8 85 11 33 3 94 9 135 13 91 8 390 6 480 -3z"/>
<path d="M3339 6246 c-2 -3 -38 -7 -79 -10 -41 -4 -115 -14 -165 -22 -49 -9
-103 -18 -120 -21 -16 -2 -95 -23 -175 -45 -546 -152 -1012 -455 -1390 -904
-137 -163 -322 -464 -395 -644 -14 -36 -30 -74 -36 -85 -48 -98 -146 -467
-164 -614 -4 -30 -9 -63 -11 -75 -16 -81 -22 -417 -10 -546 9 -93 26 -232 31
-250 2 -8 7 -30 10 -47 32 -191 119 -457 218 -663 368 -771 1080 -1334 1907
-1509 217 -45 367 -59 610 -56 118 2 233 6 255 9 22 3 60 8 85 11 338 45 698
169 1003 347 64 37 205 128 232 150 6 5 46 36 90 70 106 83 133 106 245 218
246 246 454 553 580 855 23 55 45 109 50 120 45 98 125 413 146 570 3 22 7 50
9 61 9 40 18 218 18 334 0 111 -11 318 -17 329 -2 4 -7 35 -10 70 -4 36 -9 67
-10 70 -2 3 -7 23 -10 43 -49 310 -212 709 -414 1013 -433 650 -1159 1104
-1922 1200 -25 4 -61 9 -80 11 -42 6 -476 15 -481 10z m376 -181 c238 -14 573
-87 750 -165 11 -5 64 -27 118 -51 317 -135 656 -389 898 -670 104 -121 104
-121 195 -256 195 -289 342 -656 394 -983 7 -41 14 -83 16 -93 24 -133 25
-560 0 -692 -2 -11 -9 -54 -16 -95 -46 -290 -177 -638 -340 -902 -50 -80 -167
-248 -181 -258 -3 -3 -30 -34 -60 -70 -209 -255 -517 -492 -842 -650 -151 -73
-411 -165 -527 -187 -13 -2 -56 -11 -95 -19 -38 -8 -88 -17 -110 -20 -22 -3
-56 -7 -75 -9 -128 -17 -440 -24 -515 -11 -16 2 -59 8 -95 11 -36 4 -74 9 -85
11 -10 2 -37 6 -60 9 -121 18 -422 107 -544 162 -167 75 -208 96 -298 149
-211 124 -353 235 -537 419 -320 320 -549 723 -661 1160 -61 240 -79 390 -79
650 0 232 20 411 66 590 11 44 21 87 23 95 8 36 79 241 107 305 49 113 125
260 184 355 49 80 161 237 188 266 6 6 27 31 46 55 19 24 82 91 140 149 310
309 681 530 1093 649 116 34 125 36 262 61 157 29 163 29 300 36 72 4 131 8
133 9 2 2 52 0 207 -10z"/>
<path d="M2763 5353 c4 -7 295 -889 365 -1108 14 -44 29 -89 33 -100 9 -22
184 -558 194 -591 4 -15 42 -40 130 -84 108 -54 125 -66 134 -94 17 -56 121
-387 181 -576 88 -278 239 -758 256 -815 39 -125 147 -251 266 -310 144 -71
285 -67 417 10 180 106 269 345 211 570 -27 107 -74 189 -150 265 -67 67 -110
93 -215 131 -314 115 -655 430 -792 733 -97 213 -949 1905 -972 1929 -25 28
-68 58 -58 40z m812 -1686 c40 -95 -97 -156 -141 -63 -21 42 -5 82 38 100 43
19 86 3 103 -37z m981 -1166 c129 -35 250 -199 259 -351 20 -334 -308 -498
-526 -264 -53 57 -77 103 -98 184 -33 132 -8 255 70 344 80 90 177 119 295 87z"/>
<path d="M4298 5318 c-21 -18 -53 -63 -71 -99 -19 -36 -81 -155 -137 -265 -56
-109 -133 -257 -170 -329 -37 -71 -111 -215 -165 -320 -54 -104 -115 -225
-138 -268 l-40 -78 82 -166 c45 -91 84 -164 86 -162 1 2 12 31 23 64 11 33 64
186 117 340 88 255 128 373 260 755 23 69 52 152 63 185 56 159 130 375 128
375 0 0 -18 -15 -38 -32z"/>
<path d="M4944 4010 c-10 -19 -30 -60 -45 -91 l-27 -56 -78 -12 c-44 -7 -88
-14 -99 -16 -11 -2 -22 -4 -24 -4 -3 -1 28 -32 68 -71 l73 -69 -16 -98 c-8
-54 -13 -99 -12 -101 2 -2 43 17 91 43 l87 46 85 -46 c47 -25 87 -45 90 -45 5
0 -4 80 -12 102 -2 7 -7 31 -10 52 -5 39 -3 42 66 112 81 82 84 76 -47 94
l-80 12 -46 91 -45 92 -19 -35z"/>
<path d="M2145 3911 l-46 -89 -62 -8 c-34 -4 -73 -9 -87 -11 -14 -2 -31 -5
-38 -5 -7 -1 21 -36 63 -78 41 -42 74 -78 71 -81 -2 -2 -7 -24 -11 -49 -4 -25
-10 -65 -15 -90 -5 -25 -7 -46 -6 -48 2 -1 43 19 92 45 l88 47 88 -47 c73 -40
88 -45 88 -30 0 22 -19 142 -26 164 -3 10 23 42 71 90 56 55 71 75 58 77 -10
1 -56 7 -102 14 l-85 13 -43 88 c-24 48 -45 87 -47 87 -3 0 -26 -40 -51 -89z"/>
<path d="M3295 3403 c-135 -302 -487 -610 -839 -734 -269 -94 -424 -365 -368
-644 29 -144 126 -276 245 -333 75 -36 111 -44 192 -44 153 0 304 87 398 230
54 82 55 84 242 632 35 102 86 250 113 330 134 385 193 562 190 564 -16 13
-124 66 -132 66 -6 0 -24 -30 -41 -67z m-649 -877 c43 -9 101 -45 136 -84 55
-61 79 -124 85 -222 8 -130 -33 -234 -127 -327 -56 -55 -120 -84 -196 -91
-122 -9 -218 48 -276 166 -31 62 -33 73 -33 167 1 119 23 188 89 268 85 105
202 149 322 123z"/>
</g>
</svg>
